<?xml version="1.0" encoding="utf-8"?>
<!-- Svg Vector Icons : http://www.onlinewebfonts.com/icon -->
<!DOCTYPE svg PUBLIC "-//W3C//DTD SVG 1.1//EN" "http://www.w3.org/Graphics/SVG/1.1/DTD/svg11.dtd">
<svg version="1.1" xmlns="http://www.w3.org/2000/svg" xmlns:xlink="http://www.w3.org/1999/xlink" x="0px" y="0px" viewBox="0 0 1000 1000" enable-background="new 0 0 1000 1000" xml:space="preserve">
<metadata> Svg Vector Icons : http://www.onlinewebfonts.com/icon </metadata>
<g><path d="M646.7,44l-74.5,289.9h220.8L290.3,956l61.8-393.8H206.9L277.7,44L646.7,44 M646.7,10h-369c-17,0-31.4,12.5-33.6,29.4l-70.8,518.3c-1.3,9.7,1.6,19.5,8.1,26.9c6.4,7.4,15.8,11.6,25.6,11.6h105.5l-55.6,354.6c-2.4,15.2,5.7,30.1,19.8,36.3c4.4,2,9.1,2.9,13.8,2.9c10,0,19.8-4.4,26.4-12.6l502.7-622.1c8.2-10.2,9.9-24.2,4.2-36c-5.6-11.8-17.6-19.3-30.6-19.3H616l63.6-247.5c2.6-10.2,0.4-21-6.1-29.3C667.1,14.9,657.2,10,646.7,10L646.7,10z"/></g>
</svg>