<?xml version="1.0" encoding="utf-8"?>
<!-- Svg Vector Icons : http://www.onlinewebfonts.com/icon -->
<!DOCTYPE svg PUBLIC "-//W3C//DTD SVG 1.1//EN" "http://www.w3.org/Graphics/SVG/1.1/DTD/svg11.dtd">
<svg version="1.1" xmlns="http://www.w3.org/2000/svg" xmlns:xlink="http://www.w3.org/1999/xlink" x="0px" y="0px" viewBox="0 0 1000 1000" enable-background="new 0 0 1000 1000" xml:space="preserve">
<metadata> Svg Vector Icons : http://www.onlinewebfonts.com/icon </metadata>
<g><path d="M116.5,116.6h766.9c23.5,0,42.6-19.1,42.6-42.6S907,31.4,883.5,31.4H116.5C93,31.4,73.9,50.5,73.9,74S92.9,116.6,116.5,116.6z M947.3,457.4H52.6C29.1,457.4,10,476.5,10,500c0,23.5,19.1,42.6,42.6,42.6h894.8c23.5,0,42.6-19.1,42.6-42.6C989.9,476.5,970.9,457.4,947.3,457.4z M883.4,883.4H116.5c-23.5,0-42.6,19.1-42.6,42.6c0,23.5,19.1,42.6,42.6,42.6h766.9c23.5,0,42.6-19.1,42.6-42.6C926,902.5,907,883.4,883.4,883.4z"/></g>
</svg>