<?xml version="1.0" encoding="utf-8"?>
<!-- Svg Vector Icons : http://www.onlinewebfonts.com/icon -->
<!DOCTYPE svg PUBLIC "-//W3C//DTD SVG 1.1//EN" "http://www.w3.org/Graphics/SVG/1.1/DTD/svg11.dtd">
<svg version="1.1" xmlns="http://www.w3.org/2000/svg" xmlns:xlink="http://www.w3.org/1999/xlink" x="0px" y="0px" viewBox="0 0 1000 1000" enable-background="new 0 0 1000 1000" xml:space="preserve">
<metadata> Svg Vector Icons : http://www.onlinewebfonts.com/icon </metadata>
<g><path d="M500,990c270.6,0,490-219.4,490-490c0-270.6-219.4-490-490-490C229.4,10,10,229.4,10,500C10,770.6,229.4,990,500,990L500,990z M500,914.6C271,914.6,85.4,729,85.4,500C85.4,271,271,85.4,500,85.4C729,85.4,914.6,271,914.6,500C914.6,729,729,914.6,500,914.6L500,914.6z"/><path d="M462.3,141.9h75.4v376.9h-75.4V141.9z"/><path d="M801.5,462.3v75.4H462.3v-75.4H801.5z"/><path d="M858.1,281.4c0,20.8,16.9,37.7,37.7,37.7s37.7-16.9,37.7-37.7s-16.9-37.7-37.7-37.7S858.1,260.6,858.1,281.4z"/><path d="M234.3,890.1c0,20.8,16.9,37.7,37.7,37.7c20.8,0,37.7-16.9,37.7-37.7c0-20.8-16.9-37.7-37.7-37.7C251.1,852.4,234.3,869.3,234.3,890.1z"/></g>
</svg>