<?xml version="1.0" encoding="utf-8"?>
<!-- Svg Vector Icons : http://www.onlinewebfonts.com/icon -->
<!DOCTYPE svg PUBLIC "-//W3C//DTD SVG 1.1//EN" "http://www.w3.org/Graphics/SVG/1.1/DTD/svg11.dtd">
<svg version="1.1" xmlns="http://www.w3.org/2000/svg" xmlns:xlink="http://www.w3.org/1999/xlink" x="0px" y="0px" viewBox="0 0 1000 1000" enable-background="new 0 0 1000 1000" xml:space="preserve">
<metadata> Svg Vector Icons : http://www.onlinewebfonts.com/icon </metadata>
<g><path d="M332,339C391.5,230.2,444.6,118.1,501.2,7.8C555.4,120,609.5,232.6,670.9,340.5c106.8,6.8,215.6,12.1,319.1,43c-80.3,85.6-162.9,168.2-243.7,253.3C770,754.3,792.7,872.3,801,992.2C702.3,938,608.1,869.4,499.8,837C392.4,870.3,298.1,937.5,200,992.2c7.7-119.4,28.5-236.9,55.6-352.9C174.4,552.2,89.8,469.1,10,380.6C115.4,355.4,224.2,346.7,332,339 M344.6,392.7c-75.9,10.2-152.8,16-230.1,16.9c66.2,62.9,131.5,126.7,197.7,189.5c-3.9,98.1-24.2,193.9-50.3,288.1c78.8-40.6,153.7-90.4,238.8-116c85.1,25.6,159.5,75.9,237.9,116c-26.1-94.3-46.4-191-49.8-289.1C755,535.8,820.3,472,886.1,409.6c-77.4-1-154.7-6.8-231.1-16.9C571.8,340,548.6,233.1,501.7,152.4C450.4,231.7,429.2,340.5,344.6,392.7z"/></g>
</svg>